<svg width="64" height="41" viewBox="0 0 64 41" fill="none" xmlns="http://www.w3.org/2000/svg">
                                <path fill-rule="evenodd" clip-rule="evenodd" class="calcForBlob" d="M40.0611 2.26544C50.0541 4.17551 59.2922 16.8797 64 24.52C60.7578 29.3174 55.4726 33.6262 49.6988 36.8245C52.2304 31.2719 52.2304 18.8787 45.5684 15.9469C49.5212 20.6999 49.3879 26.3857 46.5455 31.4052C43.2588 37.1798 37.0409 40.6891 30.3789 40.9556C29.5795 41 28.7356 41 27.9362 41C25.7155 41 23.4948 40.8667 21.3629 40.6002C22.5177 34.9144 21.052 32.338 19.8529 30.2503C19.0978 28.9177 14.6565 21.8992 10.3928 20.3445C10.3928 20.3445 5.2408 20.4334 2.30951 20.4334C1.02151 20.4334 0 21.4995 0 21.4995C0 21.4995 1.68772 14.481 10.4372 12.7042C12.4802 9.19502 16.433 5.99675 21.3629 3.15385C21.3629 3.15385 26.2484 0 36.508 0C40.9049 0 45.4351 0.621885 45.4351 0.621885L40.0611 2.26544ZM32.0222 15.858C32.9104 15.3694 33.4434 14.481 33.6211 13.5482C33.8875 12.4377 33.2657 11.3272 32.0666 10.8385C30.6453 10.1722 29.0909 10.1722 27.5364 11.5049C26.6037 12.3044 25.4934 14.1701 26.0707 14.7475C27.5808 16.2578 30.29 16.8353 32.0222 15.858Z" fill="#A9B6D7" data-animal="bird" fill-opacity="1"></path>
                            </svg>