<svg width="59" height="52" viewBox="0 0 59 52" fill="none" xmlns="http://www.w3.org/2000/svg">
                                <path class="calcForBlob" d="M12.3895 12.4498C7.07951 13.6088 2.94951 17.0861 2.94951 22.8816V28.677C0.589512 30.9952 -0.000488281 33.8929 -0.000488281 36.7907C1.17951 35.6316 2.94951 35.052 4.71951 34.4725C4.71951 35.6316 5.30951 36.7907 5.89951 37.3702L2.94951 44.9043C2.35951 46.0634 2.35951 47.2225 2.94951 48.3816C3.53951 50.1202 4.71951 51.2793 6.48951 51.2793C7.66951 51.2793 9.43951 50.6998 10.0295 49.5407C11.2095 48.3816 11.2095 46.6429 11.2095 44.9043L9.43951 40.2679C11.2095 40.8475 12.3895 41.427 14.7495 41.427C20.6495 41.427 24.7795 36.7907 24.7795 31.5748C24.7795 26.3588 20.0595 21.7225 14.1595 21.7225C11.7995 21.7225 10.0295 22.302 8.25951 23.4611C11.2095 20.5634 15.3395 18.8248 19.4695 18.8248C27.1395 18.8248 33.6295 24.6202 35.3995 32.7338L47.1995 29.2566L37.7595 25.1998L54.2795 18.8248L41.2995 18.2452C41.2995 18.2452 56.6395 6.6543 58.9995 0.279297L12.3895 12.4498ZM11.2095 27.5179C12.3895 27.5179 13.5695 28.677 13.5695 29.8361C13.5695 30.9952 12.3895 31.5748 11.2095 31.5748C10.0295 31.5748 9.43951 30.4157 9.43951 29.2566C9.43951 28.0975 10.0295 27.5179 11.2095 27.5179Z" fill="#A9B6D7" data-animal="rooster" fill-opacity="1"></path>
                            </svg>