<svg width="51" height="47" viewBox="0 0 51 47" fill="none" xmlns="http://www.w3.org/2000/svg">
                                <path class="calcForBlob" d="M50.9795 17.3334C50.8583 15.2061 49.1617 13.5204 47.1015 13.1591L46.6571 13.0387C49.1617 9.98826 48.9193 6.2956 46.7783 3.56624C44.7181 0.877021 40.8401 -0.808758 36.3158 0.39537C36.3158 0.39537 12.8459 5.57312 7.15005 20.1029L4.88789 28.4516C2.70652 29.5754 0 32.947 0 36.6798C0.444354 36.4389 0.929103 36.2383 1.37346 35.9974C3.43364 34.994 5.93818 35.7566 7.06926 37.6832C7.19045 37.924 7.31164 38.2451 7.06926 38.5662C6.62491 39.4493 6.14016 40.6133 5.93818 41.9378C5.49383 44.9883 6.62491 47.1155 8.32153 46.9951C10.0182 46.8747 11.3916 45.3094 11.2704 42.4997C11.2704 42.1786 11.1492 41.8174 11.1492 41.4963C13.3306 42.1786 15.5928 42.3793 18.4205 42.3793C25.8129 42.3793 30.9432 36.3988 30.9432 29.7761C30.9432 23.1534 25.005 17.1729 17.6126 17.1729C14.6637 17.1729 12.4823 17.9756 10.2201 19.4206C13.8558 15.6878 19.1072 13.4401 24.3587 13.4401C34.0536 13.4401 42.1328 20.8656 44.2738 31.2211L46.334 30.338C47.5862 29.7761 48.5961 28.8931 49.1617 27.6488C50.2928 25.4011 49.606 22.9126 47.1015 22.5915L48.4749 21.7887C50.7371 21.1465 51.1007 18.7784 50.9795 17.3334ZM14.1789 24.8793C15.6736 24.8793 17.1278 26.3243 17.1278 27.8094C17.1278 29.2543 15.6332 30.0571 14.1789 30.0571C12.7247 30.0571 11.9975 28.6121 11.9975 27.127C11.9975 25.5617 12.6843 24.8793 14.1789 24.8793Z" fill="#A9B6D7" fill-opacity="1" data-animal="chicken"></path>
                            </svg>