<svg width="66" height="44" viewBox="0 0 66 44" fill="none" xmlns="http://www.w3.org/2000/svg">
                                <path fill-rule="evenodd" clip-rule="evenodd" class="calcForBlob" clip-path="url(#clip0_330_2772)" d="M34.2256 0.230787C40.932 -0.554928 46.1584 0.73919 49.0722 1.89465C58.5074 5.59213 70.1163 13.9577 64.5662 31.5207L39.5908 43.9997C39.5908 43.9997 43.6146 39.5165 44.2158 33.8316C44.5396 31.1047 43.9383 28.8862 43.9383 28.8862C43.9383 28.8862 38.2032 34.2938 29.9243 31.382C27.288 30.5039 23.3567 27.6384 23.3567 27.6384L17.5291 30.4115C12.164 32.861 4.90259 33.8316 0 30.5963C0 30.5963 16.0028 19.9661 19.5179 16.361C19.5276 16.3538 19.5368 16.3469 19.5455 16.3403C17.4001 13.9341 19.1041 9.84026 19.9804 8.45768C21.9229 5.36104 24.7442 3.37364 28.0743 1.89465C29.6931 1.15516 32.4681 0.415661 34.2256 0.230787ZM33.1158 13.1261C32.3758 12.895 31.7283 11.9706 31.9133 11.2311C32.0058 10.8614 32.1908 10.2143 32.9308 9.56726C33.7171 8.9202 35.0583 8.73533 35.8446 9.28995C37.2784 10.353 36.3996 12.2942 35.5209 12.8026C34.5496 13.3572 33.7171 13.311 33.1158 13.1261Z" fill="#A9B6D7" data-animal="goose" fill-opacity="1"></path>
                            </svg>