<svg width="41" height="32" viewBox="0 0 41 32" fill="none" xmlns="http://www.w3.org/2000/svg">
<path d="M2.87508 0.625H38.1251C38.6445 0.625 39.1426 0.804985 39.5098 1.12536C39.8771 1.44573 40.0834 1.88026 40.0834 2.33333V29.6667C40.0834 30.1197 39.8771 30.5543 39.5098 30.8746C39.1426 31.195 38.6445 31.375 38.1251 31.375H2.87508C2.3557 31.375 1.85759 31.195 1.49033 30.8746C1.12307 30.5543 0.916748 30.1197 0.916748 29.6667V2.33333C0.916748 1.88026 1.12307 1.44573 1.49033 1.12536C1.85759 0.804985 2.3557 0.625 2.87508 0.625V0.625ZM36.1667 7.86492L20.6411 19.9941L4.83341 7.82733V27.9583H36.1667V7.86492ZM5.83412 4.04167L20.6195 15.4226L35.1915 4.04167H5.83412Z" fill="#FAFAFD"/>
</svg>
