<svg width="47" height="45" viewBox="0 0 47 45" fill="none" xmlns="http://www.w3.org/2000/svg">
                                <path fill-rule="evenodd" clip-rule="evenodd" class="calcForBlob" d="M1.44238 15.0985C0.602007 17.4168 0.147332 19.9287 0.147332 22.5701C0.147332 34.5275 10.7055 44.5718 23.1834 44.5718C36.1412 44.5718 46.2195 35.0058 46.2195 22.5701C46.2195 20.0133 45.7367 17.5439 44.8557 15.2415C47.625 9.5285 45.7395 2.48165 45.7395 2.48165C45.7395 2.48165 41.4797 3.13479 37.5631 5.52045C33.5888 2.43645 28.5646 0.568359 23.1834 0.568359C17.5843 0.568359 12.5228 2.35447 8.57973 5.38645C4.72631 3.1103 0.626828 2.48174 0.626828 2.48174C0.626828 2.48174 -1.2274 9.41164 1.44238 15.0985ZM23.1834 32.136C16.9445 32.136 12.1453 27.8313 12.1453 22.5701C12.1453 17.3088 16.9445 13.0041 23.1834 13.0041C29.4223 13.0041 34.2215 17.3088 34.2215 22.5701C33.7416 27.8313 28.9424 32.136 23.1834 32.136ZM18.5685 24.9396C19.8504 24.9396 20.8895 23.9005 20.8895 22.6186C20.8895 21.3367 19.8504 20.2975 18.5685 20.2975C17.2866 20.2975 16.2474 21.3367 16.2474 22.6186C16.2474 23.9005 17.2866 24.9396 18.5685 24.9396ZM30.1738 22.6186C30.1738 23.9005 29.1346 24.9396 27.8528 24.9396C26.5709 24.9396 25.5317 23.9005 25.5317 22.6186C25.5317 21.3367 26.5709 20.2975 27.8528 20.2975C29.1346 20.2975 30.1738 21.3367 30.1738 22.6186Z" fill="#A9B6D7" fill-opacity="1" data-animal="pig"></path>
                            </svg>