<svg width="43" height="45" viewBox="0 0 43 45" fill="none" xmlns="http://www.w3.org/2000/svg">
                                <path class="calcForBlob" d="M20.0044 22.5381C31.502 18.3969 39.8638 12.1852 42.9995 0.279297C29.4115 0.796944 18.9591 5.45577 10.0747 15.2911C5.37112 20.4675 2.23542 27.1969 0.667574 33.9264C-0.900275 39.1028 0.144956 41.6911 5.37112 44.2793H42.4769C40.909 31.8558 34.6376 23.5734 20.0044 22.5381ZM7.46158 35.9969C6.41635 35.9969 5.37112 34.9617 5.37112 33.9264C5.37112 32.8911 6.41635 31.8558 7.46158 31.8558C8.50682 31.8558 9.55206 32.8911 9.55206 33.9264C9.55206 34.9617 8.50682 35.9969 7.46158 35.9969Z" fill="#A9B6D7" fill-opacity="1" data-animal="rabbit"></path>
                            </svg>