<svg width="55" height="46" viewBox="0 0 55 46" fill="none" xmlns="http://www.w3.org/2000/svg">
                                <path clip-path="url(#clip0_319_2645)" fill-rule="evenodd" clip-rule="evenodd" class="calcForBlob" d="M54.3282 17.4204C52.3731 4.68521 40.2516 -0.0851651 29.1727 2.01347e-05C21.6999 2.01347e-05 15.1395 3.62039 11.881 9.62595C11.813 9.74824 11.7426 9.87343 11.6711 10.0007C11.0843 11.0451 10.4194 12.2284 10.3095 13.0851C9.67041 12.9891 8.40831 12.9096 7.62306 13.5871C6.72021 14.4722 6.47635 15.7373 7.07456 16.485C5.92503 17.0374 3.56579 18.3695 1.97521 20.6149C0.454579 23.2556 0.411133 27.6427 0.411133 27.6427C2.39865 26.4201 4.66583 25.6773 7.02452 25.5372C5.82657 30.221 3.79974 38.4604 3.79974 40.5908C3.79974 43.6148 5.58105 46 7.88371 46C10.1429 46 11.9677 43.5722 11.9677 40.5908C11.9677 38.5354 10.0267 30.5894 8.82098 25.8515C9.03603 25.9636 9.21995 26.0507 9.36112 26.1093C19.7048 32.447 25.8158 29.1447 30.0693 26.8462L30.172 26.7908C31.9098 25.8537 32.8222 30.5815 32.4747 32.6685C31.635 37.5328 29.7558 40.8521 28.1628 43.6661C27.9425 44.0553 27.7276 44.4348 27.5218 44.8074L45.5086 35.1815C51.8952 31.7741 55.4144 24.8315 54.4151 17.8037V17.6759V17.5482C54.3282 17.5056 54.3282 17.463 54.3282 17.4204ZM28.9988 11.9259C29.216 13.1611 28.1733 14.3111 26.6092 14.5667C25.0886 14.8222 22.3515 12.9481 22.3515 12.9481C22.3515 12.9481 24.3935 10.3926 25.9141 10.137C27.4347 9.88146 28.7816 10.6907 28.9988 11.9259Z" fill="#A9B6D7" data-animal="turkey" fill-opacity="1"></path>
                            </svg>